<?xml version="1.0" encoding="UTF-8" standalone="no"?>
<!-- 2019-11-03 14:58:35 Generated by QCAD SVG Exporter -->

<svg
   xmlns:dc="http://purl.org/dc/elements/1.1/"
   xmlns:cc="http://creativecommons.org/ns#"
   xmlns:rdf="http://www.w3.org/1999/02/22-rdf-syntax-ns#"
   xmlns:svg="http://www.w3.org/2000/svg"
   xmlns="http://www.w3.org/2000/svg"
   xmlns:sodipodi="http://sodipodi.sourceforge.net/DTD/sodipodi-0.dtd"
   xmlns:inkscape="http://www.inkscape.org/namespaces/inkscape"
   width="510.429mm"
   height="215mm"
   viewBox="0 -215 510.429 215"
   version="1.1"
   style="stroke-linecap:round;stroke-linejoin:round;fill:none"
   id="svg36"
   sodipodi:docname="SingleJointInverse.svg"
   inkscape:version="0.92.1 r15371">
  <metadata
     id="metadata42">
    <rdf:RDF>
      <cc:Work
         rdf:about="">
        <dc:format>image/svg+xml</dc:format>
        <dc:type
           rdf:resource="http://purl.org/dc/dcmitype/StillImage" />
        <dc:title></dc:title>
      </cc:Work>
    </rdf:RDF>
  </metadata>
  <defs
     id="defs40" />
  <sodipodi:namedview
     pagecolor="#efebe7"
     bordercolor="#666666"
     borderopacity="1"
     objecttolerance="10"
     gridtolerance="10"
     guidetolerance="10"
     inkscape:pageopacity="0"
     inkscape:pageshadow="2"
     inkscape:window-width="1920"
     inkscape:window-height="1035"
     id="namedview38"
     showgrid="false"
     inkscape:zoom="0.47942414"
     inkscape:cx="962.17088"
     inkscape:cy="422.67569"
     inkscape:window-x="1280"
     inkscape:window-y="0"
     inkscape:window-maximized="1"
     inkscape:current-layer="svg36" />
  <path
     style="fill:#dc5539;fill-opacity:1;stroke:#000000;stroke-width:7.55905533"
     d="M 0 0 L 141.26953 388.13086 L 362.73633 388.13086 L 243.20117 0 L 0 0 z M 154.75977 425.19727 L 295.76367 812.59766 L 493.46289 812.59766 L 374.15234 425.19727 L 154.75977 425.19727 z "
     transform="matrix(0.26458333,0,0,0.26458333,0,-215)"
     id="path2" />
  <path
     inkscape:connector-curvature="0"
     id="path6"
     style="fill:#dc5539;fill-opacity:1;stroke:#000000;stroke-width:2"
     d="M 74.347,-215 140.562,0 h 52.308 l -54.176,-215"
     sodipodi:nodetypes="cccc" />
  <path
     style="fill:#dc5539;fill-opacity:1;stroke:#000000;stroke-width:7.55905533"
     d="M 561.99219 0 L 659.61133 387.40234 L 881.11914 387.40234 L 805.19336 0 L 561.99219 0 z M 669.13477 425.19727 L 766.75195 812.59766 L 964.45312 812.59766 L 888.52734 425.19727 L 669.13477 425.19727 z "
     transform="matrix(0.26458333,0,0,0.26458333,0,-215)"
     id="path8" />
  <path
     inkscape:connector-curvature="0"
     id="path12"
     style="fill:#dc5539;fill-opacity:1;stroke:#000000;stroke-width:2"
     d="M 223.041,-215 265.178,0 h 52.308 l -30.098,-215"
     sodipodi:nodetypes="cccc" />
  <path
     style="fill:#dc5539;fill-opacity:1;stroke:#000000;stroke-width:7.55905533"
     d="M 1123.9863 0 L 1178.2188 387.40234 L 1399.7266 387.40234 L 1367.1875 0 L 1123.9863 0 z M 1183.5098 425.19727 L 1237.7422 812.59766 L 1435.4414 812.59766 L 1402.9023 425.19727 L 1183.5098 425.19727 z "
     transform="matrix(0.26458333,0,0,0.26458333,0,-215)"
     id="path14" />
  <path
     inkscape:connector-curvature="0"
     id="path18"
     style="fill:#dc5539;fill-opacity:1;stroke:#000000;stroke-width:2"
     d="M 371.735,-215 389.794,0 h 52.308 l -6.02,-215"
     sodipodi:nodetypes="cccc" />
  <path
     style="fill:#dc5539;fill-opacity:1;stroke:#000000;stroke-width:7.55905533"
     d="M 1685.9785 0 L 1696.8184 387.08789 L 1918.3438 387.08789 L 1929.1797 0 L 1685.9785 0 z M 1697.8848 425.19727 L 1708.7324 812.59766 L 1906.4316 812.59766 L 1917.2773 425.19727 L 1697.8848 425.19727 z "
     transform="matrix(0.26458333,0,0,0.26458333,0,-215)"
     id="path20" />
  <path
     inkscape:connector-curvature="0"
     id="path22"
     style="fill:#dc5539;fill-opacity:1;stroke:#000000;stroke-width:2"
     d="m 371.735,-215 h 64.347"
     sodipodi:nodetypes="cc" />
  <path
     inkscape:connector-curvature="0"
     id="path24"
     style="fill:#dc5539;fill-opacity:1;stroke:#000000;stroke-width:2"
     d="m 223.041,-215 h 64.347"
     sodipodi:nodetypes="cc" />
  <path
     inkscape:connector-curvature="0"
     id="path26"
     style="fill:#dc5539;fill-opacity:1;stroke:#000000;stroke-width:2"
     d="m 74.347,-215 h 64.347"
     sodipodi:nodetypes="cc" />
</svg>
