<?xml version="1.0" encoding="UTF-8" standalone="no"?>
<!-- 2019-11-03 14:54:04 Generated by QCAD SVG Exporter -->

<svg
   xmlns:dc="http://purl.org/dc/elements/1.1/"
   xmlns:cc="http://creativecommons.org/ns#"
   xmlns:rdf="http://www.w3.org/1999/02/22-rdf-syntax-ns#"
   xmlns:svg="http://www.w3.org/2000/svg"
   xmlns="http://www.w3.org/2000/svg"
   xmlns:sodipodi="http://sodipodi.sourceforge.net/DTD/sodipodi-0.dtd"
   xmlns:inkscape="http://www.inkscape.org/namespaces/inkscape"
   width="510.429mm"
   height="215mm"
   viewBox="0 -215 510.429 215"
   version="1.1"
   style="stroke-linecap:round;stroke-linejoin:round;fill:none"
   id="svg60"
   sodipodi:docname="Alternating.svg"
   inkscape:version="0.92.4 5da689c313, 2019-01-14">
  <metadata
     id="metadata66">
    <rdf:RDF>
      <cc:Work
         rdf:about="">
        <dc:format>image/svg+xml</dc:format>
        <dc:type
           rdf:resource="http://purl.org/dc/dcmitype/StillImage" />
        <dc:title></dc:title>
      </cc:Work>
    </rdf:RDF>
  </metadata>
  <defs
     id="defs64" />
  <sodipodi:namedview
     pagecolor="#efebe7"
     bordercolor="#666666"
     borderopacity="1"
     objecttolerance="10"
     gridtolerance="10"
     guidetolerance="10"
     inkscape:pageopacity="0"
     inkscape:pageshadow="2"
     inkscape:window-width="1276"
     inkscape:window-height="696"
     id="namedview62"
     showgrid="false"
     inkscape:zoom="0.16950203"
     inkscape:cx="2798.8884"
     inkscape:cy="406.29921"
     inkscape:window-x="0"
     inkscape:window-y="80"
     inkscape:window-maximized="0"
     inkscape:current-layer="svg60" />
  <g
     transform="scale(1,-1)"
     id="g58"
     style="fill:#dc5539;fill-opacity:1">
    <!-- Polyline -->
    <path
       d="M84.3655,150 L64.347,215 L0,215 L23.6582,150"
       style="stroke:#000000;stroke-width:2;fill:#dc5539;fill-opacity:1"
       id="path2" />
    <!-- Polyline -->
    <path
       d="M27.2979,140 L78.254,0 L130.562,0 L87.4453,140"
       style="stroke:#000000;stroke-width:2;fill:#dc5539;fill-opacity:1"
       id="path4" />
    <!-- Polyline -->
    <path
       d="M120.5435,65 L140.562,0 L192.87,0 L176.4912,65"
       style="stroke:#000000;stroke-width:2;fill:#dc5539;fill-opacity:1"
       id="path6" />
    <!-- Polyline -->
    <path
       d="M173.9714,75 L138.694,215 L74.347,215 L117.4637,75"
       style="stroke:#000000;stroke-width:2;fill:#dc5539;fill-opacity:1"
       id="path8" />
    <!-- Polyline -->
    <path
       d="M167.5926,140 L202.87,0 L255.178,0 L227.74,140"
       style="stroke:#000000;stroke-width:2;fill:#dc5539;fill-opacity:1"
       id="path10" />
    <!-- Polyline -->
    <path
       d="M225.7801,150 L213.041,215 L148.694,215 L165.0728,150"
       style="stroke:#000000;stroke-width:2;fill:#dc5539;fill-opacity:1"
       id="path12" />
    <!-- Polyline -->
    <path
       d="M252.4389,65 L265.178,0 L317.486,0 L308.3866,65"
       style="stroke:#000000;stroke-width:2;fill:#dc5539;fill-opacity:1"
       id="path14" />
    <!-- Polyline -->
    <path
       d="M306.9867,75 L287.388,215 L223.041,215 L250.479,75"
       style="stroke:#000000;stroke-width:2;fill:#dc5539;fill-opacity:1"
       id="path16" />
    <!-- Polyline -->
    <path
       d="M307.8873,140 L327.486,0 L379.794,0 L368.0347,140"
       style="stroke:#000000;stroke-width:2;fill:#dc5539;fill-opacity:1"
       id="path18" />
    <!-- Polyline -->
    <path
       d="M367.1947,150 L361.735,215 L297.388,215 L306.4874,150"
       style="stroke:#000000;stroke-width:2;fill:#dc5539;fill-opacity:1"
       id="path20" />
    <!-- Polyline -->
    <path
       d="M384.3343,65 L389.794,0 L442.102,0 L440.282,65"
       style="stroke:#000000;stroke-width:2;fill:#dc5539;fill-opacity:1"
       id="path22" />
    <!-- Polyline -->
    <path
       d="M440.002,75 L436.082,215 L371.735,215 L383.4943,75"
       style="stroke:#000000;stroke-width:2;fill:#dc5539;fill-opacity:1"
       id="path24" />
    <!-- Polyline -->
    <path
       d="M448.182,140 L452.102,0 L504.41,0 L508.3293,140"
       style="stroke:#000000;stroke-width:2;fill:#dc5539;fill-opacity:1"
       id="path26" />
    <!-- Polyline -->
    <path
       d="M508.6093,150 L510.429,215 L446.082,215 L447.902,150"
       style="stroke:#000000;stroke-width:2;fill:#dc5539;fill-opacity:1"
       id="path28" />
    <!-- Line -->
    <path
       d="M120.5435,65 L176.4912,65 "
       style="stroke:#000000;stroke-width:2;fill:#dc5539;fill-opacity:1"
       id="path30" />
    <!-- Line -->
    <path
       d="M252.4389,65 L308.3866,65 "
       style="stroke:#000000;stroke-width:2;fill:#dc5539;fill-opacity:1"
       id="path32" />
    <!-- Line -->
    <path
       d="M384.3343,65 L440.282,65 "
       style="stroke:#000000;stroke-width:2;fill:#dc5539;fill-opacity:1"
       id="path34" />
    <!-- Line -->
    <path
       d="M117.4637,75 L173.9714,75 "
       style="stroke:#000000;stroke-width:2;fill:#dc5539;fill-opacity:1"
       id="path36" />
    <!-- Line -->
    <path
       d="M250.479,75 L306.9867,75 "
       style="stroke:#000000;stroke-width:2;fill:#dc5539;fill-opacity:1"
       id="path38" />
    <!-- Line -->
    <path
       d="M383.4943,75 L440.002,75 "
       style="stroke:#000000;stroke-width:2;fill:#dc5539;fill-opacity:1"
       id="path40" />
    <!-- Line -->
    <path
       d="M23.6582,150 L84.3655,150 "
       style="stroke:#000000;stroke-width:2;fill:#dc5539;fill-opacity:1"
       id="path42" />
    <!-- Line -->
    <path
       d="M165.0728,150 L225.7801,150 "
       style="stroke:#000000;stroke-width:2;fill:#dc5539;fill-opacity:1"
       id="path44" />
    <!-- Line -->
    <path
       d="M306.4874,150 L367.1947,150 "
       style="stroke:#000000;stroke-width:2;fill:#dc5539;fill-opacity:1"
       id="path46" />
    <!-- Line -->
    <path
       d="M447.902,150 L508.6093,150 "
       style="stroke:#000000;stroke-width:2;fill:#dc5539;fill-opacity:1"
       id="path48" />
    <!-- Line -->
    <path
       d="M27.2979,140 L87.4453,140 "
       style="stroke:#000000;stroke-width:2;fill:#dc5539;fill-opacity:1"
       id="path50" />
    <!-- Line -->
    <path
       d="M167.5926,140 L227.74,140 "
       style="stroke:#000000;stroke-width:2;fill:#dc5539;fill-opacity:1"
       id="path52" />
    <!-- Line -->
    <path
       d="M307.8873,140 L368.0347,140 "
       style="stroke:#000000;stroke-width:2;fill:#dc5539;fill-opacity:1"
       id="path54" />
    <!-- Line -->
    <path
       d="M448.182,140 L508.3293,140 "
       style="stroke:#000000;stroke-width:2;fill:#dc5539;fill-opacity:1"
       id="path56" />
  </g>
</svg>
